<svg viewBox="52 147 110 220" xmlns="http://www.w3.org/2000/svg">
 <path d="m109.66 299.15c-17.127 0-25.82-2.8832-26.078-8.6497-0.43034-7.9181-1.7644-13.9-4.0021-17.945-0.94673-1.6353-2.2808-3.6148-4.0021-5.9386-2.9263-3.873-4.5615-7.1435-4.9058-9.8116-0.08607-0.68853-0.12911-1.4201-0.12911-2.1947 0-5.4222 2.2808-9.6825 6.8423-12.781 1.1189-0.68854 2.2808-1.248 3.4857-1.6783 4.5615-1.6353 9.08-1.3771 13.555 0.77461 1.6353 0.77458 3.2705 1.8074 4.9058 3.0984l0.12911 0.12911c0-1.8074 0.08605-3.7439 0.2582-5.8095 0-0.60249 0.30122-1.4201 0.90369-2.4529 1.3771-2.2377 3.0123-4.0021 4.9058-5.2931 0.34426-0.17214 0.68853-0.38731 1.0328-0.6455v-3.0984l-5.2931-3.0984v-4.6476h4.7767l1.6783-4.9058h3.873l1.6783 4.9058h4.7767v4.6476l-5.2931 3.0984v3.0984c4.4755 2.8402 6.7562 5.6804 6.8423 8.5206 0.17213 1.7213 0.2582 3.6148 0.2582 5.6804l0.12911-0.12911c5.4222-4.5615 11.103-6.0246 17.041-4.3894 1.5492 0.43031 3.0123 1.0758 4.3894 1.9365 4.8197 2.9262 7.2726 7.2726 7.3587 13.039 0 3.4427-1.7213 7.5308-5.164 12.264-2.8402 3.9591-4.6046 6.8423-5.2931 8.6497-1.4631 3.873-2.3238 8.8648-2.582 14.976-0.17212 5.7665-8.8649 8.6497-26.078 8.6497m0-43.507 3.7439-5.9386c0.60247-1.291 1.0758-2.4959 1.4201-3.6148 0.17215-0.60246 0.25822-1.8504 0.25822-3.7439 0-5.0779-1.7644-7.6169-5.2931-7.6169-3.7008 0-5.5513 2.539-5.5513 7.6169 0 1.8935 0.08607 3.1414 0.2582 3.7439 0.68853 2.3238 2.1517 5.0779 4.3894 8.2624 0.51641 0.60247 0.77461 1.0328 0.77461 1.291m34.47-0.2582c0-3.873-1.291-6.8423-3.873-8.9079-2.1516-1.8074-4.6906-2.7111-7.6169-2.7111-3.7008 0-7.703 1.8934-12.006 5.6804-5.0779 4.3894-7.9612 10.328-8.6497 17.816 0 0.60246 1.5922 1.291 4.7767 2.0656 3.7009 0.68854 9.9837 1.0328 18.849 1.0328l5.8095-7.746c1.8074-2.7541 2.7111-5.164 2.7111-7.2296m-34.47 17.428c-2.1517 0.94675-8.6927 1.7644-19.623 2.4529-1.6353 0.08608-2.9693 0.17213-4.0021 0.2582 0.86068 3.2705 1.4201 6.8853 1.6783 10.844 5.9386-1.8935 13.254-2.8402 21.947-2.8402 8.8648 0 16.181 0.94672 21.947 2.8402 0.2582-4.3033 0.81763-7.9181 1.6783-10.844l-19.107-1.5492c-1.6353-0.25819-3.1414-0.64549-4.5185-1.1619m-34.47-17.428c0 2.6681 2.1086 6.7132 6.3259 12.135 1.0328 1.291 1.7644 2.2378 2.1947 2.8402h2.3238c8.8649 0 15.32-0.60246 19.365-1.8074 1.291-0.34426 1.9365-0.77458 1.9365-1.291-0.68854-7.4878-3.5718-13.426-8.6497-17.816-4.2173-3.7869-8.2194-5.6804-12.006-5.6804-1.2049 0-2.4959 0.25819-3.873 0.7746-3.4427 0.86066-5.7665 3.1414-6.9714 6.8423l-0.6455 3.4857v0.51639m34.47 39.117c8.0902 0 13.685-0.51641 16.783-1.5492 0.7746-0.25822 1.1619-0.55945 1.1619-0.90372 0-2.2377-5.9386-3.3566-17.816-3.3566-4.5615 0-8.9939 0.30125-13.297 0.90371-3.1845 0.51639-4.7767 1.334-4.7767 2.4529 0 1.291 5.0779 2.1086 15.234 2.4529h2.7111"/>
</svg>