<svg viewBox="892 5 110 220" xmlns="http://www.w3.org/2000/svg">
 <path d="m920.08 156.32c-0.08604-1.0328-0.12908-3.0554-0.12908-6.0677 0-10.844 3.3566-18.892 10.07-24.142 1.9795-1.6353 4.3893-3.1414 7.2296-4.5185-3.3566-1.0328-5.6374-3.5718-6.8423-7.6169-0.34427-1.291-0.51639-2.625-0.51639-4.0021 0-5.7665 2.9693-9.8546 8.9079-12.264-1.5493-2.582-2.3239-5.0349-2.3238-7.3587-1.1e-4 -3.873 1.8934-6.7562 5.6804-8.6497 1.7212-0.86067 3.5716-1.291 5.5513-1.291 4.3032 0 7.4877 1.6783 9.5534 5.0349 0.94662 1.4631 1.42 3.0984 1.4201 4.9058-1e-4 2.4959-0.73167 4.9488-2.1947 7.3587 3.1844 1.291 5.4651 3.0123 6.8423 5.164 1.377 2.3238 2.0655 4.6906 2.0656 7.1005-1.4e-4 4.4754-1.5493 7.8751-4.6476 10.199-0.77471 0.68854-1.6354 1.1619-2.582 1.4201 7.918 4.0451 13.039 9.3382 15.363 15.879 1.2048 3.6148 1.8073 7.8751 1.8074 12.781-1e-4 3.0123-0.04314 5.0349-0.12908 6.0677h-55.126"/>
</svg>