<svg viewBox="220 5 110 220" xmlns="http://www.w3.org/2000/svg">
 <path d="m254.43 142.89c0 1.3771 0.98976 2.0656 2.9693 2.0656l8.9079-0.6455 7.746-0.3873h1.9365l15.105 0.77461 3.0984 0.25819c1.9794 0 2.9692-0.68853 2.9693-2.0656-1e-4 -2.4959-5.7666-3.873-17.299-4.1312h-4.0021c-9.7256 0-16.224 0.73158-19.494 2.1947-1.291 0.51641-1.9365 1.1619-1.9365 1.9365m-16.137-53.964c-1.6353 0-2.6681 0.81765-3.0984 2.4529-0.08607 0.2582-0.12911 0.51639-0.12911 0.77461 0 1.6353 0.81765 2.6681 2.4529 3.0984 0.25819 0.08607 0.51639 0.12911 0.7746 0.12911 2.0656 0 3.0984-1.0758 3.0984-3.2275s-1.0328-3.2275-3.0984-3.2275m16.912-8.1333c-2.2377 0-3.3566 1.0758-3.3566 3.2275s1.1188 3.2275 3.3566 3.2275c2.0656 0 3.0984-1.0758 3.0984-3.2275s-1.0328-3.2275-3.0984-3.2275m41.183 0c-1.4632 0-2.453 0.73158-2.9693 2.1947l-0.12911 1.0328c-1e-4 2.1517 1.0327 3.2275 3.0984 3.2275 2.1516 0 3.2274-1.0758 3.2275-3.2275s-1.0759-3.2275-3.2275-3.2275m16.783 8.1333c-2.0657 0-3.0985 1.0758-3.0984 3.2275s1.0327 3.2275 3.0984 3.2275c2.1516 0 3.2274-1.0758 3.2275-3.2275-1.3e-4 -1.6353-0.81775-2.6681-2.4529-3.0984-0.2583-0.08607-0.51651-0.12911-0.7746-0.12911m-9.2952 61.71c-1.1e-4 2.4099-4.4325 4.0882-13.297 5.0349l-12.523 0.77458h-2.3238c-10.5 0-18.504-0.90369-24.013-2.7111-2.6681-0.77461-4.0021-1.8074-4.0021-3.0984 0-2.4959 0.68853-5.3361 2.0656-8.5206 0.94673-1.8935 1.4201-3.2275 1.4201-4.0021 0-1.6353-1.9795-4.8198-5.9386-9.5534-2.1517-2.4959-3.3996-4.2173-3.7439-5.164 0-0.51639-0.2582-1.6783-0.77461-3.4857l-1.6783-6.455c-1.1188-4.2173-1.8504-8.6927-2.1947-13.426-3.9591-1.6353-5.9386-4.2603-5.9386-7.8751 0-3.0984 1.4201-5.2931 4.2603-6.5841 0.94673-0.43035 1.9795-0.64552 3.0984-0.64552 2.8402 0 4.9488 1.291 6.3259 3.873 0.60248 1.1188 0.90371 2.2377 0.90371 3.3566l-0.6455 4.9058c0 3.873 2.7541 8.6067 8.2624 14.201 0.43032-3.5287 0.6455-7.2296 0.6455-11.103 0-5.7664-1.0328-9.4243-3.0984-10.973-0.17213-0.17215-0.34428-0.30123-0.51639-0.3873-1.5492-0.94674-2.3238-2.625-2.3238-5.0349 0-3.1845 1.4631-5.3792 4.3894-6.5841 0.94675-0.43033 1.9365-0.6455 2.9693-0.6455 3.0123 0 5.164 1.3771 6.455 4.1312 0.51639 0.94675 0.77448 1.9795 0.7746 3.0984l-0.90371 5.5513c0 4.8197 2.3667 12.178 7.1005 22.076 1.8073-8.0903 2.711-14.287 2.7111-18.59-1e-4 -3.6148-0.64562-6.9284-1.9365-9.9407-0.51652-1.1189-0.77471-1.9795-0.77461-2.582-1e-4 -3.1845 1.42-5.3792 4.2603-6.5841 0.94662-0.43032 1.9364-0.6455 2.9693-0.6455 3.0122 0 5.1208 1.4201 6.3259 4.2603 0.43022 0.94673 0.6454 1.9365 0.6455 2.9693-1e-4 0.17213-0.73167 2.4529-2.1947 6.8423-0.34439 1.1188-0.51651 3.0123-0.51641 5.6804-1e-4 4.3033 0.90359 10.5 2.7111 18.59 4.6475-9.8116 6.9713-17.17 6.9714-22.076l-0.7746-5.4222v-0.12911c-1.2e-4 -3.1845 1.463-5.3792 4.3894-6.5841 0.94662-0.43033 1.9364-0.6455 2.9693-0.6455 3.0122 0 5.1639 1.3771 6.455 4.1312 0.51629 0.94675 0.77449 1.9795 0.77459 3.0984-1e-4 2.4099-0.77471 4.1312-2.3238 5.164-2.41 1.5492-3.6149 5.3361-3.6148 11.361-1e-4 3.7869 0.21505 7.4448 0.6455 10.974 5.5081-5.5943 8.2623-10.328 8.2624-14.201l-0.6455-4.9058c-1e-4 -3.0123 1.377-5.164 4.1312-6.455 0.94662-0.51639 1.9794-0.7746 3.0984-0.7746 3.0983 0 5.293 1.3771 6.5841 4.1312l0.7746 2.4529v0.6455c-1e-4 3.4426-1.9796 6.0677-5.9386 7.8751-0.51651 5.9386-1.9796 13.211-4.3894 21.818-0.17223 0.68854-0.25831 1.2049-0.2582 1.5492-1.1e-4 0.60247-0.64561 1.5922-1.9365 2.9693l-1.5492 1.9365c-4.1313 4.7337-6.1969 8.0042-6.1968 9.8116-1e-4 0.51639 1.0327 3.1845 3.0984 8.0042 0.34417 1.7213 0.51628 3.2275 0.51639 4.5185m-28.015-73.845c-1.6354 0-2.6682 0.81764-3.0984 2.4529-0.08618 0.2582-0.12919 0.51639-0.12908 0.77459-1.1e-4 1.6353 0.81751 2.6681 2.4529 3.0984 0.25809 0.08607 0.51631 0.12911 0.77461 0.12911 2.0655 0 3.0983-1.0758 3.0984-3.2275-1.2e-4 -1.5492-0.73167-2.582-2.1947-3.0984-0.2583-0.08606-0.55953-0.1291-0.90369-0.1291m23.238 50.349c-1e-4 -2.7541-7.7461-4.1312-23.238-4.1312-15.578 0-23.367 1.4201-23.367 4.2603 0 1.2049 1.1188 1.8074 3.3566 1.8074 2.582 0 5.8095-0.21516 9.6825-0.6455l8.3915-0.25819h2.0656c2.4097 0 6.9713 0.21515 13.685 0.6455l6.3259 0.25819c2.0655 0 3.0983-0.6455 3.0984-1.9365"/>
</svg>