<svg viewBox="388 147 110 220" xmlns="http://www.w3.org/2000/svg">
 <path d="m430.41 249.06v22.851h29.435v-22.851h-29.435m-15.234 50.091-2.4529-2.4529v-8.9079l13.168-13.297v-25.82l-11.361-9.9407v-11.748l3.7439-3.6148h11.619l2.1947 2.1947v3.3566h3.7439v-3.3566l2.1947-2.1947h14.201l2.1947 2.1947v3.3566h3.6148v-3.3566l2.3238-2.1947h11.619l3.7439 3.6148v11.748l-11.361 9.9407v25.82l13.168 13.297v8.9079l-2.4529 2.4529h-59.902m2.0656-10.199v5.0349h55.771v-5.0349h-55.771m12.652-12.781-8.5206 8.2624h47.509l-8.5206-8.2624h-30.468m10.328-47.38v3.3566l-1.9365 1.8074h-8.3915l-1.9365-1.8074v-3.6148h-7.2296l-1.6783 1.8074v7.2296l8.7788 7.1005h34.599l8.7788-7.1005v-7.2296l-1.6783-1.8074h-7.2296v3.6148l-1.9365 1.8074h-8.3915l-1.9365-1.8074v-3.3566h-9.8116"/>
</svg>